<?xml version="1.0" standalone="no"?>
<svg viewBox="0 0 200 200" xmlns="http://www.w3.org/2000/svg">
  <path fill="#8A3FFC" d="M35.1,-58.8C48.4,-53,64.2,-49.6,65.8,-40.2C67.5,-30.8,55,-15.4,54.6,-0.2C54.3,15,66,30,67.2,44.3C68.4,58.5,59,72.1,46,80.5C33,88.9,16.5,92,2.2,88.2C-12.1,84.4,-24.2,73.6,-37.7,65.6C-51.2,57.5,-66.2,52.2,-74.8,41.7C-83.5,31.2,-85.8,15.6,-85.7,0C-85.6,-15.5,-83.2,-31.1,-76.4,-44.7C-69.6,-58.4,-58.4,-70.2,-45,-75.8C-31.5,-81.5,-15.8,-81.1,-2.5,-76.8C10.9,-72.6,21.7,-64.5,35.1,-58.8Z" transform="translate(100 100)" />
</svg>
