<?xml version="1.0" standalone="no"?>
<svg viewBox="0 0 200 200" xmlns="http://www.w3.org/2000/svg">
  <path fill="#8A3FFC" d="M41,-68.7C52.1,-64.6,59.4,-51.5,64.3,-38.6C69.3,-25.6,72,-12.8,71.3,-0.4C70.6,12,66.4,24,61.9,37.7C57.4,51.5,52.6,67.1,42.2,76.2C31.8,85.3,15.9,88,2.6,83.5C-10.6,78.9,-21.2,67,-32,58.1C-42.7,49.2,-53.6,43.2,-64.3,34C-75,24.8,-85.5,12.4,-85.5,0C-85.6,-12.4,-75.1,-24.9,-63.8,-33C-52.5,-41.2,-40.3,-45,-29.6,-49.3C-18.8,-53.7,-9.4,-58.5,2.8,-63.3C14.9,-68.1,29.9,-72.9,41,-68.7Z" transform="translate(100 100)" />
</svg>
